<?xml version="1.0" encoding="iso-8859-1"?>
<!-- Generator: Adobe Illustrator 19.0.0, SVG Export Plug-In . SVG Version: 6.00 Build 0)  -->
<svg version="1.1" id="Layer_1" xmlns="http://www.w3.org/2000/svg" xmlns:xlink="http://www.w3.org/1999/xlink" x="0px" y="0px"
	 viewBox="0 0 511.998 511.998" style="enable-background:new 0 0 511.998 511.998;" xml:space="preserve">
<path style="fill:#2D527C;" d="M198.318,511.998h-89.12c-7.646,0-13.847-6.201-13.847-13.847V224.349
	c0-7.646,6.201-13.847,13.847-13.847h89.12c7.646,0,13.847,6.201,13.847,13.847v273.802
	C212.165,505.799,205.966,511.998,198.318,511.998z M123.045,484.305h61.426V238.196h-61.426V484.305z"/>
<rect x="198.314" y="224.345" style="fill:#CEE8FA;" width="89.118" height="273.808"/>
<g>
	<path style="fill:#2D527C;" d="M287.441,511.998h-89.121c-7.646,0-13.847-6.201-13.847-13.847V224.349
		c0-7.646,6.201-13.847,13.847-13.847h89.121c7.646,0,13.847,6.201,13.847,13.847v273.802
		C301.287,505.799,295.087,511.998,287.441,511.998z M212.165,484.305h61.427V238.196h-61.427V484.305z"/>
	<path style="fill:#2D527C;" d="M376.149,511.998h-89.12c-7.646,0-13.847-6.201-13.847-13.847V224.349
		c0-7.646,6.201-13.847,13.847-13.847s13.847,6.201,13.847,13.847v259.955h61.426V313.117c0-7.646,6.201-13.847,13.847-13.847
		c7.646,0,13.847,6.201,13.847,13.847v185.034C389.996,505.799,383.797,511.998,376.149,511.998z"/>
	<path style="fill:#2D527C;" d="M359.889,105.244c-1.52,0-3.064-0.253-4.581-0.782c-7.217-2.53-11.017-10.431-8.488-17.648
		l4.676-13.341L231.739,31.496l-4.677,13.34c-2.53,7.217-10.429,11.015-17.648,8.485c-7.217-2.53-11.015-10.431-8.485-17.648
		l9.258-26.406c2.53-7.217,10.428-11.01,17.646-8.487L373.724,51.92c7.217,2.53,11.017,10.431,8.488,17.648l-9.257,26.407
		C370.958,101.674,365.606,105.243,359.889,105.244z"/>
</g>
<rect x="92.851" y="111.205" transform="matrix(-0.9437 -0.3308 0.3308 -0.9437 446.5994 384.2144)" style="fill:#CEE8FA;" width="326.287" height="85.798"/>
<path style="fill:#2D527C;" d="M395.77,262.396c-1.545,0-3.093-0.259-4.581-0.78L83.267,153.685
	c-7.217-2.53-11.017-10.431-8.488-17.648l28.381-80.968c1.216-3.466,3.757-6.307,7.067-7.898c3.309-1.594,7.116-1.804,10.582-0.59
	l307.922,107.933c7.217,2.53,11.017,10.431,8.488,17.648l-28.381,80.968c-1.216,3.466-3.757,6.307-7.067,7.898
	C399.881,261.938,397.828,262.396,395.77,262.396z M105.496,132.129l281.788,98.772l19.219-54.834L124.715,77.297L105.496,132.129z"
	/>
<g>
</g>
<g>
</g>
<g>
</g>
<g>
</g>
<g>
</g>
<g>
</g>
<g>
</g>
<g>
</g>
<g>
</g>
<g>
</g>
<g>
</g>
<g>
</g>
<g>
</g>
<g>
</g>
<g>
</g>
</svg>
